<?xml version="1.0" encoding="utf-8"?>
<!-- Generator: Adobe Illustrator 15.0.0, SVG Export Plug-In . SVG Version: 6.00 Build 0)  -->
<!DOCTYPE svg PUBLIC "-//W3C//DTD SVG 1.1//EN" "http://www.w3.org/Graphics/SVG/1.1/DTD/svg11.dtd">
<svg version="1.1" xmlns="http://www.w3.org/2000/svg" xmlns:xlink="http://www.w3.org/1999/xlink" x="0px" y="0px"
	 width="113.386px" height="113.386px" viewBox="-4.193 -6.193 113.386 113.386"
	 enable-background="new -4.193 -6.193 113.386 113.386" xml:space="preserve">
<g id="Layer_2">
	<circle fill="#AFC94C" cx="52.193" cy="50.807" r="54"/>
</g>
<g id="education" display="none">
	<g display="inline">
		<path fill="#FFFDFD" d="M80.096,62.581c-0.688,3.135-8.826,11.306-17.062,12.074c-13.123,1.226-29.399-10.5-31.587-15.619
			c-0.806-1.887,0.365-6.672,1.436-10.172l32.383,6.146l10.914-7.329C78.811,52.825,80.568,60.426,80.096,62.581z"/>
		<path fill="#FFFDFD" d="M44.747,24.87L3.709,42.063l16.224,3.081c-2.465,5.595-3.662,15.132-2.115,22.511
			c0.759,3.617,7.809,2.969,7.642,2.334c-2.392-9.1-2.333-17.207,0.427-23.715L65.004,53.7l32.9-22.093L44.747,24.87z
			 M49.725,36.039c-0.027-0.777,1.42-1.722,3.232-1.786c1.814-0.065,3.309,0.774,3.334,1.551
			C56.318,36.581,49.754,36.816,49.725,36.039z"/>
	</g>
</g>
<g id="Health">
	<g>
		<path fill="#FFFFFF" d="M63.324,38.572V14.188c0-4.812-4.273-8.713-9.543-8.713h-3.178c-5.271,0-9.541,3.901-9.541,8.713v24.299
			v0.085H63.324z"/>
		<path fill="#FFFFFF" d="M39.872,39.675H15.574c-4.813,0-8.713,4.272-8.713,9.543v3.178c0,5.268,3.899,9.543,8.713,9.543h24.297
			L39.872,39.675L39.872,39.675z"/>
		<path fill="#FFFFFF" d="M88.813,39.675H64.517l-0.001,22.262h24.298c4.812,0,8.711-4.273,8.711-9.541v-3.179
			C97.525,43.948,93.626,39.675,88.813,39.675z"/>
		<path fill="#FFFFFF" d="M41.062,62.533v24.895c0,4.812,4.271,8.711,9.541,8.711h3.178c5.269,0,9.543-3.898,9.543-8.711V62.533
			H41.062z"/>
	</g>
	<path fill="#FFFFFF" d="M41.061,39.973v21.667h22.265V39.973H41.061z M46.679,57.271c-0.57,0-1.033-0.463-1.033-1.035
		c0-0.57,0.463-1.033,1.033-1.033c0.571,0,1.034,0.463,1.034,1.033C47.713,56.809,47.25,57.271,46.679,57.271z M46.679,51.871
		c-0.57,0-1.033-0.463-1.033-1.033s0.463-1.034,1.033-1.034c0.571,0,1.034,0.463,1.034,1.034S47.25,51.871,46.679,51.871z
		 M46.679,46.358c-0.57,0-1.033-0.463-1.033-1.034s0.463-1.034,1.033-1.034c0.571,0,1.034,0.463,1.034,1.034
		S47.25,46.358,46.679,46.358z M52.192,57.271c-0.57,0-1.033-0.463-1.033-1.035c0-0.57,0.463-1.033,1.033-1.033
		c0.571,0,1.034,0.463,1.034,1.033C53.227,56.809,52.764,57.271,52.192,57.271z M52.192,51.871c-0.57,0-1.033-0.463-1.033-1.033
		s0.463-1.034,1.033-1.034c0.571,0,1.034,0.463,1.034,1.034S52.764,51.871,52.192,51.871z M52.192,46.358
		c-0.57,0-1.033-0.463-1.033-1.034s0.463-1.034,1.033-1.034c0.571,0,1.034,0.463,1.034,1.034S52.764,46.358,52.192,46.358z
		 M57.591,57.326c-0.57,0-1.033-0.463-1.033-1.033c0-0.568,0.463-1.033,1.033-1.033c0.571,0,1.034,0.465,1.034,1.033
		C58.625,56.863,58.162,57.326,57.591,57.326z M57.591,51.928c-0.57,0-1.033-0.463-1.033-1.033c0-0.57,0.463-1.033,1.033-1.033
		c0.571,0,1.034,0.463,1.034,1.033C58.625,51.465,58.162,51.928,57.591,51.928z M57.591,46.416c-0.57,0-1.033-0.463-1.033-1.034
		c0-0.57,0.463-1.034,1.033-1.034c0.571,0,1.034,0.463,1.034,1.034C58.625,45.952,58.162,46.416,57.591,46.416z"/>
</g>
<g id="transport" display="none">
	<path display="inline" fill="#FFFFFF" d="M25.704,8.624c-1.004-0.85-0.883-1.486,0.361-1.906c3.766-0.009,7.533-0.01,11.298-0.01
		c1.785,0,17.069-0.677,16.297,1.328c-0.553,1.435-4.541,0.622-5.627,0.699c-3.299,0.7-6.026,3.391-6.881,6.636
		c3.577,0.065,8.061-0.749,11.448,0.67c4.977,2.087,6.212,8.709,8.793,12.916c4.732,7.71,11.594,14.095,19.622,18.266
		c4.275,2.222,8.867,3.817,13.597,4.738c6.503,1.271,4.972,2.225,4.963,8.973c-0.009,5.497-0.182,5.305-5.7,5.305
		c-6.608,0-13.216,0-19.825,0.002c-11.896,0-23.791,0-35.686,0c-7.982,0-22.498,3.088-25.287-7.458
		c-2.065-7.811-0.988-21.295,1.75-28.882c1.383-3.475,3.005-11.777,6.206-13.92c3.474-2.323,12.464-0.583,16.542-0.592
		C36.008,9.031,30.858,9.249,25.704,8.624C24.601,8.352,27.343,8.822,25.704,8.624z M39.317,14.36
		c1.619-1.823,2.041-4.001,4.128-5.659c-2.689-0.044-5.379-0.044-8.069,0C35.854,9.23,38.506,11.907,39.317,14.36z M22.155,19.445
		c-2.443,0.716-3.94,7.545-4.801,9.615c-1.681,4.189,2.32,3.761,5.271,3.764c9.795,0.007,19.589-0.007,29.385,0.004
		c5.74,0.019-0.676-13.534-3.335-13.457C40.55,19.365,30.041,17.567,22.155,19.445C21.513,19.633,22.683,19.319,22.155,19.445z
		 M66.197,51.85c0.012-3.715-0.004-7.432,0.005-11.148c0.228-1.206-5.2-5.767-6.067-6.735C60.263,38.998,58.221,50.039,66.197,51.85
		z M74.563,55.382c0.023-7.134,0.493-8.421-5.398-12.617C69.112,46.058,67.251,53.356,74.563,55.382z M20.078,46.259
		c-3.857,0.981-2.815,7.116,1.182,6.632C25.965,52.703,24.738,44.858,20.078,46.259C18.436,46.677,21.798,45.741,20.078,46.259z
		 M46.856,46.259c-4.132,1.029-2.554,7.559,1.592,6.578C52.791,52.058,51.241,44.947,46.856,46.259
		C45.127,46.688,48.583,45.741,46.856,46.259z M81.908,57.654c0.075-6.336,0.682-6.965-4.76-9.787
		C77.148,50.685,75.715,56.168,81.908,57.654z M88.261,58.998c-0.061-5.319,0.942-6.262-4.039-8.007
		C84.209,53.404,82.806,58.376,88.261,58.998z M93.625,59.78c-0.018-4.289,1.657-6.276-3.447-6.923
		C90.195,55.001,88.391,59.41,93.625,59.78z M97.996,60.154c-0.021-3.146,1.719-6.687-2.81-6.232
		C95.229,55.918,93.489,60.165,97.996,60.154z"/>
	<path display="inline" fill="#FFFFFF" d="M19.383,69.417c3.278,0.005,6.558,0.008,9.835,0c0.625,5.073,2.061,3.336,7.157,3.35
		c4.902,0.014,7.696,2.065,8.107-3.345c3.931,0,7.861,0,11.792,0c7.86,0,15.723,0,23.584,0c3.93,0,7.861-0.002,11.792-0.002
		c4.493,0,7.944-2.164,7.891,3.294c-18.107-0.065-35.369,5.029-53.163,5.025c-8.741-0.001-17.483,0.006-26.224,0
		c-3.586-0.001-7.498,1.922-7.508-2.491C12.634,68.781,18.883,76.974,19.383,69.417C22.662,69.422,19.31,70.523,19.383,69.417z"/>
</g>
<g id="Layer_4" display="none">
	
		<image display="inline" overflow="visible" width="528" height="450" xlink:href="../../../../Desktop/Screen Shot 2014-04-29 at 16.53.52.png"  transform="matrix(1 0 0 1 -539.5 -211.5)">
	</image>
</g>
</svg>
