<?xml version="1.0" encoding="utf-8"?>
<!-- Generator: Adobe Illustrator 15.0.0, SVG Export Plug-In . SVG Version: 6.00 Build 0)  -->
<!DOCTYPE svg PUBLIC "-//W3C//DTD SVG 1.1//EN" "http://www.w3.org/Graphics/SVG/1.1/DTD/svg11.dtd">
<svg version="1.1" xmlns="http://www.w3.org/2000/svg" xmlns:xlink="http://www.w3.org/1999/xlink" x="0px" y="0px"
	 width="113.386px" height="113.386px" viewBox="-4.193 -6.193 113.386 113.386"
	 enable-background="new -4.193 -6.193 113.386 113.386" xml:space="preserve">
<g id="Layer_2">
	<circle fill="#AFC94C" cx="51.207" cy="48.689" r="54"/>
</g>
<g id="Layer_7" display="none">
	<circle display="inline" fill="#76ABC0" cx="51.207" cy="48.689" r="54"/>
</g>
<g id="education" display="none">
	<g display="inline">
		<path fill="#FFFDFD" d="M80.096,62.581c-0.688,3.135-8.826,11.306-17.062,12.074c-13.123,1.226-29.399-10.5-31.587-15.619
			c-0.806-1.887,0.365-6.672,1.436-10.172l32.383,6.146l10.914-7.329C78.811,52.825,80.568,60.426,80.096,62.581z"/>
		<path fill="#FFFDFD" d="M44.747,24.87L3.709,42.063l16.224,3.081c-2.465,5.595-3.662,15.132-2.115,22.511
			c0.759,3.617,7.809,2.969,7.642,2.334c-2.392-9.1-2.333-17.207,0.427-23.715L65.004,53.7l32.9-22.093L44.747,24.87z
			 M49.725,36.039c-0.027-0.777,1.42-1.722,3.232-1.786c1.814-0.065,3.309,0.774,3.334,1.551
			C56.318,36.581,49.754,36.816,49.725,36.039z"/>
	</g>
</g>
<g id="Health" display="none">
	<g display="inline">
		<path fill="#FFFFFF" d="M63.324,38.572V14.188c0-4.812-4.273-8.713-9.543-8.713h-3.178c-5.271,0-9.541,3.901-9.541,8.713v24.299
			v0.085H63.324z"/>
		<path fill="#FFFFFF" d="M39.872,39.675H15.574c-4.813,0-8.713,4.272-8.713,9.543v3.178c0,5.268,3.899,9.543,8.713,9.543h24.297
			L39.872,39.675L39.872,39.675z"/>
		<path fill="#FFFFFF" d="M88.813,39.675H64.517l-0.001,22.262h24.298c4.812,0,8.711-4.273,8.711-9.541v-3.179
			C97.525,43.948,93.626,39.675,88.813,39.675z"/>
		<path fill="#FFFFFF" d="M41.062,62.533v24.895c0,4.812,4.271,8.711,9.541,8.711h3.178c5.269,0,9.543-3.898,9.543-8.711V62.533
			H41.062z"/>
	</g>
	<path display="inline" fill="#FFFFFF" d="M41.061,39.973v21.667h22.265V39.973H41.061z M46.679,57.271
		c-0.57,0-1.033-0.463-1.033-1.035c0-0.57,0.463-1.033,1.033-1.033c0.571,0,1.034,0.463,1.034,1.033
		C47.713,56.809,47.25,57.271,46.679,57.271z M46.679,51.871c-0.57,0-1.033-0.463-1.033-1.033s0.463-1.034,1.033-1.034
		c0.571,0,1.034,0.463,1.034,1.034S47.25,51.871,46.679,51.871z M46.679,46.358c-0.57,0-1.033-0.463-1.033-1.034
		s0.463-1.034,1.033-1.034c0.571,0,1.034,0.463,1.034,1.034S47.25,46.358,46.679,46.358z M52.192,57.271
		c-0.57,0-1.033-0.463-1.033-1.035c0-0.57,0.463-1.033,1.033-1.033c0.571,0,1.034,0.463,1.034,1.033
		C53.227,56.809,52.764,57.271,52.192,57.271z M52.192,51.871c-0.57,0-1.033-0.463-1.033-1.033s0.463-1.034,1.033-1.034
		c0.571,0,1.034,0.463,1.034,1.034S52.764,51.871,52.192,51.871z M52.192,46.358c-0.57,0-1.033-0.463-1.033-1.034
		s0.463-1.034,1.033-1.034c0.571,0,1.034,0.463,1.034,1.034S52.764,46.358,52.192,46.358z M57.591,57.326
		c-0.57,0-1.033-0.463-1.033-1.033c0-0.568,0.463-1.033,1.033-1.033c0.571,0,1.034,0.465,1.034,1.033
		C58.625,56.863,58.162,57.326,57.591,57.326z M57.591,51.928c-0.57,0-1.033-0.463-1.033-1.033c0-0.57,0.463-1.033,1.033-1.033
		c0.571,0,1.034,0.463,1.034,1.033C58.625,51.465,58.162,51.928,57.591,51.928z M57.591,46.416c-0.57,0-1.033-0.463-1.033-1.034
		c0-0.57,0.463-1.034,1.033-1.034c0.571,0,1.034,0.463,1.034,1.034C58.625,45.952,58.162,46.416,57.591,46.416z"/>
</g>
<g id="water" display="none">
	<g id="Your_Icon" display="inline">
		<path fill="#FFFFFF" d="M52.209,90.4c14.619,0,26.471-11.854,26.471-26.45c0-14.635-26.471-53.971-26.471-53.971
			S25.734,49.315,25.734,63.95C25.735,78.547,37.581,90.4,52.209,90.4z M59,47.314c0,0,8.127,12.416,8.127,16.812
			c0,4.383-3.65,7.954-8.127,7.954c-4.5,0-8.15-3.571-8.15-7.954C50.85,59.73,59,47.314,59,47.314z"/>
	</g>
</g>
<g id="Layer_8">
	<g>
		<path fill="#FFFFFF" d="M69.822,63.185c-2.084-3.229-4.609-5.327-8.221-6.515c0,0-2.725-1.4-9.844-1.4
			c-7.12,0-9.846,1.4-9.846,1.4c-3.611,1.2-6.137,3.285-8.223,6.515c-0.826,1.271-1.272,3.827-1.302,5.193
			c0.011,0.355,0,0.768,0,1.179v2.355v-1.625c0,2.604,1.778,4.712,3.971,4.712H67.15c2.195,0,3.972-2.108,3.972-4.712v1.625v-2.355
			c0-0.411-0.008-0.823,0-1.179C71.094,67.012,70.648,64.455,69.822,63.185 M40.902,37.395c0,6.038,3.763,14.905,10.855,14.905
			c6.967,0,10.852-8.869,10.852-14.905s-4.858-10.938-10.852-10.938C45.762,26.457,40.902,31.358,40.902,37.395"/>
		<g>
			<path fill="#FFFFFF" d="M39.785,53.908c-1.75-2.222-3.849-3.745-6.659-4.667c0,0-2.546-1.31-9.199-1.31
				c-6.656,0-9.202,1.31-9.202,1.31c-3.375,1.12-5.736,3.069-7.685,6.087c-0.772,1.188-1.189,3.578-1.218,4.854
				c0.01,0.334,0,0.719,0,1.103v0.682c0,2.433,1.661,4.403,3.712,4.403h18.583c0.265-1.541,0.734-3.233,1.403-4.262
				C32.132,58.062,35.294,55.439,39.785,53.908z"/>
			<path fill="#FFFFFF" d="M23.926,45.156c6.511,0,10.141-8.29,10.141-13.931c0-5.643-4.542-10.224-10.141-10.224
				c-5.604,0-10.147,4.581-10.147,10.224C13.78,36.867,17.298,45.156,23.926,45.156z"/>
		</g>
		<g>
			<path fill="#FFFFFF" d="M63.76,53.908c1.75-2.222,3.85-3.745,6.659-4.667c0,0,2.546-1.31,9.198-1.31
				c6.654,0,9.203,1.31,9.203,1.31c3.375,1.12,5.735,3.069,7.684,6.087c0.773,1.188,1.189,3.578,1.219,4.854
				c-0.01,0.334,0,0.719,0,1.103v0.682c0,2.433-1.662,4.403-3.713,4.403H75.428c-0.264-1.541-0.734-3.233-1.403-4.262
				C71.412,58.062,68.25,55.439,63.76,53.908z"/>
			<path fill="#FFFFFF" d="M79.619,45.156c-6.512,0-10.141-8.29-10.141-13.931c0-5.643,4.541-10.224,10.141-10.224
				c5.604,0,10.146,4.581,10.146,10.224C89.766,36.867,86.248,45.156,79.619,45.156z"/>
		</g>
	</g>
</g>
<g id="transport" display="none">
	<path display="inline" fill="#FFFFFF" d="M24.704,8.624c-1.004-0.85-0.883-1.486,0.361-1.906c3.766-0.009,7.533-0.01,11.298-0.01
		c1.785,0,17.069-0.677,16.297,1.328c-0.553,1.435-4.541,0.622-5.627,0.699c-3.299,0.7-6.026,3.391-6.881,6.636
		c3.577,0.065,8.061-0.749,11.448,0.67c4.977,2.087,6.212,8.709,8.793,12.916c4.732,7.71,11.594,14.095,19.622,18.266
		c4.275,2.222,8.867,3.817,13.597,4.738c6.503,1.271,4.972,2.225,4.963,8.973c-0.009,5.497-0.182,5.305-5.7,5.305
		c-6.608,0-13.216,0-19.825,0.002c-11.896,0-23.791,0-35.686,0c-7.982,0-22.498,3.088-25.287-7.458
		c-2.065-7.811-0.988-21.295,1.75-28.882c1.383-3.475,3.005-11.777,6.206-13.92c3.474-2.323,12.464-0.583,16.542-0.592
		C35.008,9.031,29.858,9.249,24.704,8.624C23.601,8.352,26.343,8.822,24.704,8.624z M38.317,14.36
		c1.619-1.823,2.041-4.001,4.128-5.659c-2.689-0.044-5.379-0.044-8.069,0C34.854,9.23,37.506,11.907,38.317,14.36z M21.155,19.445
		c-2.443,0.716-3.94,7.545-4.801,9.615c-1.681,4.189,2.32,3.761,5.271,3.764c9.795,0.007,19.589-0.007,29.385,0.004
		c5.74,0.019-0.676-13.534-3.335-13.457C39.55,19.365,29.041,17.567,21.155,19.445C20.513,19.633,21.683,19.319,21.155,19.445z
		 M65.197,51.85c0.012-3.715-0.004-7.432,0.005-11.148c0.228-1.206-5.2-5.767-6.067-6.735C59.263,38.998,57.221,50.039,65.197,51.85
		z M73.563,55.382c0.023-7.134,0.493-8.421-5.398-12.617C68.112,46.058,66.251,53.356,73.563,55.382z M19.078,46.259
		c-3.857,0.981-2.815,7.116,1.182,6.632C24.965,52.703,23.738,44.858,19.078,46.259C17.436,46.677,20.798,45.741,19.078,46.259z
		 M45.856,46.259c-4.132,1.029-2.554,7.559,1.592,6.578C51.791,52.058,50.241,44.947,45.856,46.259
		C44.127,46.688,47.583,45.741,45.856,46.259z M80.908,57.654c0.075-6.336,0.682-6.965-4.76-9.787
		C76.148,50.685,74.715,56.168,80.908,57.654z M87.261,58.998c-0.061-5.319,0.942-6.262-4.039-8.007
		C83.209,53.404,81.806,58.376,87.261,58.998z M92.625,59.78c-0.018-4.289,1.657-6.276-3.447-6.923
		C89.195,55.001,87.391,59.41,92.625,59.78z M96.996,60.154c-0.021-3.146,1.719-6.687-2.81-6.232
		C94.229,55.918,92.489,60.165,96.996,60.154z"/>
	<path display="inline" fill="#FFFFFF" d="M18.383,69.417c3.278,0.005,6.558,0.008,9.835,0c0.625,5.073,2.061,3.336,7.157,3.35
		c4.902,0.014,7.696,2.065,8.107-3.345c3.931,0,7.861,0,11.792,0c7.86,0,15.723,0,23.584,0c3.93,0,7.861-0.002,11.792-0.002
		c4.493,0,7.944-2.164,7.891,3.294c-18.107-0.065-35.369,5.029-53.163,5.025c-8.741-0.001-17.483,0.006-26.224,0
		c-3.586-0.001-7.498,1.922-7.508-2.491C11.634,68.781,17.883,76.974,18.383,69.417C21.662,69.422,18.31,70.523,18.383,69.417z"/>
</g>
<g id="Layer_4" display="none">
	
		<image display="inline" overflow="visible" width="528" height="450" xlink:href="../../../../Desktop/Screen Shot 2014-04-29 at 16.53.52.png"  transform="matrix(1 0 0 1 -539.5 -211.5)">
	</image>
</g>
</svg>
