<?xml version="1.0" encoding="utf-8"?>
<!-- Generator: Adobe Illustrator 15.0.0, SVG Export Plug-In . SVG Version: 6.00 Build 0)  -->
<!DOCTYPE svg PUBLIC "-//W3C//DTD SVG 1.1//EN" "http://www.w3.org/Graphics/SVG/1.1/DTD/svg11.dtd">
<svg version="1.1" xmlns="http://www.w3.org/2000/svg" xmlns:xlink="http://www.w3.org/1999/xlink" x="0px" y="0px"
	 width="113.386px" height="113.386px" viewBox="-4.193 -6.193 113.386 113.386"
	 enable-background="new -4.193 -6.193 113.386 113.386" xml:space="preserve">
<g id="Layer_2" display="none">
	<circle display="inline" fill="#AFC94C" cx="53.193" cy="49.073" r="54"/>
</g>
<g id="education" display="none">
	<g display="inline">
		<path fill="#FFFDFD" d="M80.096,62.581c-0.688,3.135-8.826,11.306-17.062,12.074c-13.123,1.226-29.399-10.5-31.587-15.619
			c-0.806-1.887,0.365-6.672,1.436-10.172l32.383,6.146l10.914-7.329C78.811,52.825,80.568,60.426,80.096,62.581z"/>
		<path fill="#FFFDFD" d="M44.747,24.87L3.709,42.063l16.224,3.081c-2.465,5.595-3.662,15.132-2.115,22.511
			c0.759,3.617,7.809,2.969,7.642,2.334c-2.392-9.1-2.333-17.207,0.427-23.715L65.004,53.7l32.9-22.093L44.747,24.87z
			 M49.725,36.039c-0.027-0.777,1.42-1.722,3.232-1.786c1.814-0.065,3.309,0.774,3.334,1.551
			C56.318,36.581,49.754,36.816,49.725,36.039z"/>
	</g>
</g>
<g id="Health" display="none">
	<g display="inline">
		<path fill="#FFFFFF" d="M63.324,38.572V14.188c0-4.812-4.273-8.713-9.543-8.713h-3.178c-5.271,0-9.541,3.901-9.541,8.713v24.299
			v0.085H63.324z"/>
		<path fill="#FFFFFF" d="M39.872,39.675H15.574c-4.813,0-8.713,4.272-8.713,9.543v3.178c0,5.268,3.899,9.543,8.713,9.543h24.297
			L39.872,39.675L39.872,39.675z"/>
		<path fill="#FFFFFF" d="M88.813,39.675H64.517l-0.001,22.262h24.298c4.812,0,8.711-4.273,8.711-9.541v-3.179
			C97.525,43.948,93.626,39.675,88.813,39.675z"/>
		<path fill="#FFFFFF" d="M41.062,62.533v24.895c0,4.812,4.271,8.711,9.541,8.711h3.178c5.269,0,9.543-3.898,9.543-8.711V62.533
			H41.062z"/>
	</g>
	<path display="inline" fill="#FFFFFF" d="M41.061,39.973v21.667h22.265V39.973H41.061z M46.679,57.271
		c-0.57,0-1.033-0.463-1.033-1.035c0-0.57,0.463-1.033,1.033-1.033c0.571,0,1.034,0.463,1.034,1.033
		C47.713,56.809,47.25,57.271,46.679,57.271z M46.679,51.871c-0.57,0-1.033-0.463-1.033-1.033s0.463-1.034,1.033-1.034
		c0.571,0,1.034,0.463,1.034,1.034S47.25,51.871,46.679,51.871z M46.679,46.358c-0.57,0-1.033-0.463-1.033-1.034
		s0.463-1.034,1.033-1.034c0.571,0,1.034,0.463,1.034,1.034S47.25,46.358,46.679,46.358z M52.192,57.271
		c-0.57,0-1.033-0.463-1.033-1.035c0-0.57,0.463-1.033,1.033-1.033c0.571,0,1.034,0.463,1.034,1.033
		C53.227,56.809,52.764,57.271,52.192,57.271z M52.192,51.871c-0.57,0-1.033-0.463-1.033-1.033s0.463-1.034,1.033-1.034
		c0.571,0,1.034,0.463,1.034,1.034S52.764,51.871,52.192,51.871z M52.192,46.358c-0.57,0-1.033-0.463-1.033-1.034
		s0.463-1.034,1.033-1.034c0.571,0,1.034,0.463,1.034,1.034S52.764,46.358,52.192,46.358z M57.591,57.326
		c-0.57,0-1.033-0.463-1.033-1.033c0-0.568,0.463-1.033,1.033-1.033c0.571,0,1.034,0.465,1.034,1.033
		C58.625,56.863,58.162,57.326,57.591,57.326z M57.591,51.928c-0.57,0-1.033-0.463-1.033-1.033c0-0.57,0.463-1.033,1.033-1.033
		c0.571,0,1.034,0.463,1.034,1.033C58.625,51.465,58.162,51.928,57.591,51.928z M57.591,46.416c-0.57,0-1.033-0.463-1.033-1.034
		c0-0.57,0.463-1.034,1.033-1.034c0.571,0,1.034,0.463,1.034,1.034C58.625,45.952,58.162,46.416,57.591,46.416z"/>
</g>
<g id="water" display="none">
	<g id="Your_Icon" display="inline">
		<path fill="#FFFFFF" d="M52.209,90.4c14.619,0,26.471-11.854,26.471-26.45c0-14.635-26.471-53.971-26.471-53.971
			S25.734,49.315,25.734,63.95C25.735,78.547,37.581,90.4,52.209,90.4z M59,47.314c0,0,8.127,12.416,8.127,16.812
			c0,4.383-3.65,7.954-8.127,7.954c-4.5,0-8.15-3.571-8.15-7.954C50.85,59.73,59,47.314,59,47.314z"/>
	</g>
</g>
<g id="civilSociety" display="none">
	<g display="inline">
		<path fill="#FFFFFF" d="M69.822,63.185c-2.084-3.229-4.609-5.327-8.221-6.515c0,0-2.725-1.4-9.844-1.4
			c-7.12,0-9.846,1.4-9.846,1.4c-3.611,1.2-6.137,3.285-8.223,6.515c-0.826,1.271-1.272,3.827-1.302,5.193
			c0.011,0.355,0,0.768,0,1.179v2.355v-1.625c0,2.604,1.778,4.712,3.971,4.712H67.15c2.195,0,3.972-2.108,3.972-4.712v1.625v-2.355
			c0-0.411-0.008-0.823,0-1.179C71.094,67.012,70.648,64.455,69.822,63.185 M40.902,37.395c0,6.038,3.763,14.905,10.855,14.905
			c6.967,0,10.852-8.869,10.852-14.905s-4.858-10.938-10.852-10.938C45.762,26.457,40.902,31.358,40.902,37.395"/>
		<g>
			<path fill="#FFFFFF" d="M39.785,53.908c-1.75-2.222-3.849-3.745-6.659-4.667c0,0-2.546-1.31-9.199-1.31
				c-6.656,0-9.202,1.31-9.202,1.31c-3.375,1.12-5.736,3.069-7.685,6.087c-0.772,1.188-1.189,3.578-1.218,4.854
				c0.01,0.334,0,0.719,0,1.103v0.682c0,2.433,1.661,4.403,3.712,4.403h18.583c0.265-1.541,0.734-3.233,1.403-4.262
				C32.132,58.062,35.294,55.439,39.785,53.908z"/>
			<path fill="#FFFFFF" d="M23.926,45.156c6.511,0,10.141-8.29,10.141-13.931c0-5.643-4.542-10.224-10.141-10.224
				c-5.604,0-10.147,4.581-10.147,10.224C13.78,36.867,17.298,45.156,23.926,45.156z"/>
		</g>
		<g>
			<path fill="#FFFFFF" d="M63.76,53.908c1.75-2.222,3.85-3.745,6.659-4.667c0,0,2.546-1.31,9.198-1.31
				c6.654,0,9.203,1.31,9.203,1.31c3.375,1.12,5.735,3.069,7.684,6.087c0.773,1.188,1.189,3.578,1.219,4.854
				c-0.01,0.334,0,0.719,0,1.103v0.682c0,2.433-1.662,4.403-3.713,4.403H75.428c-0.264-1.541-0.734-3.233-1.403-4.262
				C71.412,58.062,68.25,55.439,63.76,53.908z"/>
			<path fill="#FFFFFF" d="M79.619,45.156c-6.512,0-10.141-8.29-10.141-13.931c0-5.643,4.541-10.224,10.141-10.224
				c5.604,0,10.146,4.581,10.146,10.224C89.766,36.867,86.248,45.156,79.619,45.156z"/>
		</g>
	</g>
</g>
<g id="otherSocialServices" display="none">
	<path display="inline" fill="#FFFFFF" d="M66.606,94.638c0.269-9.006,0.577-16.16,0.919-18.237
		c1.149-6.991,4.068-11.057,4.954-19.634c0.882-8.575,2.474-10.342,4.859-15.117c2.389-4.775,9.375-9.46,9.464-12.909
		c0.031-1.326-2.124-2.388-4.866,0c-2.74,2.386-12.113,13.705-13.439,12.024c-1.326-1.677,2.475-9.814,4.335-16.888
		c1.856-7.075,3.006-12.025,0.175-12.732c-2.83-0.708-4.51,4.334-7.427,15.384c-2.917,11.053-3.361,11.053-4.864,10.08
		c-1.504-0.971-0.019-16.915-0.019-16.915c0.22-6.444,1.109-14.001-2.444-13.558c-3.558,0.445-4.667,9.112-4.667,14.002
		c0,4.891,0.354,15.241-1.203,15.241s-2.799-2.573-3.909-13.463c-1.11-10.889-2.222-10.899-3.333-10.889
		c-1.696,0.016-3.555,1.778-3.555,8.001c0,6.222,2.445,16.891,2.667,23.781c0.223,6.889-2.222,10.444-5.333,10.89
		c-3.113,0.444-7.113-5.113-12.668-7.335c-5.557-2.221-6.667,4.445-6.667,4.445s4.222,0.889,6.889,3.112
		c2.668,2.222,5.556,8.222,5.556,8.222c2.89,2.665,14.002,11.778,14.002,11.778s0.444,10.002-0.224,18.445
		c-0.066,0.85-0.186,1.865-0.33,2.962C53.638,95.864,60.076,96.882,66.606,94.638z"/>
</g>
<g id="Layer_7" display="none">
	<circle display="inline" fill="#76ABC0" cx="52.193" cy="49.689" r="54"/>
</g>
<g id="transport" display="none">
	<path display="inline" fill="#FFFFFF" d="M24.704,8.624c-1.004-0.85-0.883-1.486,0.361-1.906c3.766-0.009,7.533-0.01,11.298-0.01
		c1.785,0,17.069-0.677,16.297,1.328c-0.553,1.435-4.541,0.622-5.627,0.699c-3.299,0.7-6.026,3.391-6.881,6.636
		c3.577,0.065,8.061-0.749,11.448,0.67c4.977,2.087,6.212,8.709,8.793,12.916c4.732,7.71,11.594,14.095,19.622,18.266
		c4.275,2.222,8.867,3.817,13.597,4.738c6.503,1.271,4.972,2.225,4.963,8.973c-0.009,5.497-0.182,5.305-5.7,5.305
		c-6.608,0-13.216,0-19.825,0.002c-11.896,0-23.791,0-35.686,0c-7.982,0-22.498,3.088-25.287-7.458
		c-2.065-7.811-0.988-21.295,1.75-28.882c1.383-3.475,3.005-11.777,6.206-13.92c3.474-2.323,12.464-0.583,16.542-0.592
		C35.008,9.031,29.858,9.249,24.704,8.624C23.601,8.352,26.343,8.822,24.704,8.624z M38.317,14.36
		c1.619-1.823,2.041-4.001,4.128-5.659c-2.689-0.044-5.379-0.044-8.069,0C34.854,9.23,37.506,11.907,38.317,14.36z M21.155,19.445
		c-2.443,0.716-3.94,7.545-4.801,9.615c-1.681,4.189,2.32,3.761,5.271,3.764c9.795,0.007,19.589-0.007,29.385,0.004
		c5.74,0.019-0.676-13.534-3.335-13.457C39.55,19.365,29.041,17.567,21.155,19.445C20.513,19.633,21.683,19.319,21.155,19.445z
		 M65.197,51.85c0.012-3.715-0.004-7.432,0.005-11.148c0.228-1.206-5.2-5.767-6.067-6.735C59.263,38.998,57.221,50.039,65.197,51.85
		z M73.563,55.382c0.023-7.134,0.493-8.421-5.398-12.617C68.112,46.058,66.251,53.356,73.563,55.382z M19.078,46.259
		c-3.857,0.981-2.815,7.116,1.182,6.632C24.965,52.703,23.738,44.858,19.078,46.259C17.436,46.677,20.798,45.741,19.078,46.259z
		 M45.856,46.259c-4.132,1.029-2.554,7.559,1.592,6.578C51.791,52.058,50.241,44.947,45.856,46.259
		C44.127,46.688,47.583,45.741,45.856,46.259z M80.908,57.654c0.075-6.336,0.682-6.965-4.76-9.787
		C76.148,50.685,74.715,56.168,80.908,57.654z M87.261,58.998c-0.061-5.319,0.942-6.262-4.039-8.007
		C83.209,53.404,81.806,58.376,87.261,58.998z M92.625,59.78c-0.018-4.289,1.657-6.276-3.447-6.923
		C89.195,55.001,87.391,59.41,92.625,59.78z M96.996,60.154c-0.021-3.146,1.719-6.687-2.81-6.232
		C94.229,55.918,92.489,60.165,96.996,60.154z"/>
	<path display="inline" fill="#FFFFFF" d="M18.383,69.417c3.278,0.005,6.558,0.008,9.835,0c0.625,5.073,2.061,3.336,7.157,3.35
		c4.902,0.014,7.696,2.065,8.107-3.345c3.931,0,7.861,0,11.792,0c7.86,0,15.723,0,23.584,0c3.93,0,7.861-0.002,11.792-0.002
		c4.493,0,7.944-2.164,7.891,3.294c-18.107-0.065-35.369,5.029-53.163,5.025c-8.741-0.001-17.483,0.006-26.224,0
		c-3.586-0.001-7.498,1.922-7.508-2.491C11.634,68.781,17.883,76.974,18.383,69.417C21.662,69.422,18.31,70.523,18.383,69.417z"/>
</g>
<g id="communications" display="none">
	<path display="inline" fill="#FFFFFF" d="M64.436,86.571v5.087H39.001v-5.087c0-2.812,2.275-5.086,5.087-5.086h5.086V47.953
		c-2.96-1.053-5.086-3.845-5.086-7.163c0-4.212,3.417-7.63,7.629-7.63c4.213,0,7.631,3.417,7.631,7.63
		c0,3.318-2.137,6.11-5.086,7.163v33.532h5.086C62.161,81.485,64.436,83.759,64.436,86.571z M39.13,53.378l1.789,1.798l3.606-3.596
		l-1.798-1.798c-4.958-4.958-4.958-13.026,0-17.983L44.525,30l-3.596-3.596l-1.799,1.798C32.186,35.137,32.186,46.434,39.13,53.378z
		 M35.534,24.605l1.798-1.798l-3.597-3.597l-1.798,1.798c-10.909,10.909-10.909,28.653,0,39.562l1.798,1.798l3.597-3.596l-1.798-1.8
		C26.602,48.053,26.602,33.527,35.534,24.605z M28.341,17.413l1.799-1.798l-3.597-3.596l-1.799,1.798
		c-14.873,14.873-14.873,39.076,0,53.958l1.799,1.8l3.597-3.597l-1.799-1.798C15.445,51.281,15.445,30.298,28.341,17.413z
		 M60.709,49.782l-1.798,1.798l3.607,3.596l1.789-1.798c6.943-6.944,6.943-18.241,0-25.176l-1.8-1.798L58.911,30l1.798,1.798
		C65.668,36.756,65.668,44.824,60.709,49.782z M71.5,21.009l-1.799-1.798l-3.596,3.597l1.797,1.798
		c8.923,8.922,8.923,23.447,0,32.368l-1.797,1.8l3.596,3.596l1.799-1.798C82.408,49.662,82.408,31.918,71.5,21.009z M78.693,13.816
		l-1.799-1.798l-3.596,3.596l1.797,1.798c12.886,12.886,12.886,33.859,0,46.766l-1.797,1.798l3.596,3.597l1.799-1.8
		C93.566,52.892,93.566,28.679,78.693,13.816z"/>
</g>
<g id="energy" display="none">
	<path display="inline" fill="#FFFFFF" d="M51.639,23.349c-12.838,0-23.279,10.442-23.279,23.279
		c0,10.997,10.74,22.311,11.043,22.954c0.319,0.668,0.992,1.094,1.734,1.094h22.542c0.775,0,1.477-0.467,1.773-1.186
		c0.26-0.621,9.469-13.211,9.469-22.862C74.922,33.792,64.475,23.349,51.639,23.349z"/>
	<path display="inline" fill="#FFFFFF" d="M62.717,73.939H41.797c-1.062,0-1.92,0.861-1.92,1.92s0.858,1.92,1.92,1.92h20.921
		c1.062,0,1.92-0.861,1.92-1.92S63.779,73.939,62.717,73.939z"/>
	<path display="inline" fill="#FFFFFF" d="M60.801,81.043H43.715c-1.06,0-1.919,0.857-1.919,1.918s0.859,1.92,1.919,1.92h17.085
		c1.062,0,1.916-0.859,1.916-1.92S61.862,81.043,60.801,81.043z"/>
	<path display="inline" fill="#FFFFFF" d="M56.404,88.736h-8.76c-1.062,0-1.923,0.859-1.923,1.922c0,3.473,2.83,6.299,6.302,6.299
		s6.301-2.826,6.301-6.299C58.324,89.596,57.465,88.736,56.404,88.736z"/>
	<path display="inline" fill="#FFFFFF" d="M18.57,45.093H7.437c-1.057,0-1.919,0.86-1.919,1.92c0,1.058,0.862,1.918,1.919,1.918
		H18.57c1.062,0,1.919-0.86,1.919-1.918C20.489,45.954,19.632,45.093,18.57,45.093z"/>
	<path display="inline" fill="#FFFFFF" d="M29.501,22.271l-7.872-7.874c-0.753-0.75-1.966-0.75-2.714,0
		c-0.751,0.75-0.751,1.965,0,2.716l7.87,7.872c0.748,0.75,1.966,0.75,2.716,0C30.25,24.234,30.25,23.02,29.501,22.271z"/>
	<path display="inline" fill="#FFFFFF" d="M51.45,15.78c1.058-0.002,1.917-0.861,1.917-1.921V2.725c0-1.059-0.859-1.918-1.917-1.918
		c-1.062,0-1.924,0.859-1.924,1.918V13.86C49.526,14.92,50.389,15.778,51.45,15.78z"/>
	<path display="inline" fill="#FFFFFF" d="M84.062,14.204c-0.748-0.75-1.965-0.75-2.717-0.001l-7.869,7.874
		c-0.749,0.747-0.749,1.964,0,2.713c0.75,0.75,1.963,0.75,2.714,0l7.872-7.872C84.813,16.167,84.813,14.952,84.062,14.204z"/>
	<path display="inline" fill="#FFFFFF" d="M95.734,44.818H84.6c-1.059,0-1.918,0.86-1.918,1.918s0.859,1.92,1.918,1.92h11.135
		c1.061,0,1.921-0.862,1.919-1.92C97.653,45.677,96.795,44.818,95.734,44.818z"/>
</g>
<g id="banking" display="none">
	<path display="inline" fill="#FFFFFF" d="M22.966,33.4V21.38c2.457,0.895,4.202,3.098,4.202,5.672c0,1.34,1.088,2.429,2.43,2.429
		c1.343,0,2.428-1.087,2.428-2.429c0-5.248-3.887-9.641-9.06-10.708v-4.855c0-1.341-1.086-2.429-2.428-2.429
		c-1.34,0-2.429,1.088-2.429,2.429v4.855c-5.173,1.067-9.063,5.46-9.063,10.708c0,5.246,3.89,9.638,9.063,10.705v12.018
		c-2.459-0.893-4.205-3.094-4.205-5.667c0-1.342-1.086-2.43-2.429-2.43c-1.339,0-2.427,1.087-2.427,2.43
		c0,5.245,3.89,9.635,9.063,10.703v4.243c0,1.34,1.088,2.428,2.429,2.428c1.341,0,2.427-1.088,2.427-2.428V54.81
		c5.173-1.067,9.062-5.458,9.062-10.703C32.026,38.862,28.14,34.467,22.966,33.4z M13.904,27.052c0-2.576,1.746-4.777,4.205-5.672
		v11.339C15.649,31.827,13.904,29.627,13.904,27.052z M22.966,49.774V38.437c2.457,0.893,4.202,3.096,4.202,5.672
		C27.168,46.681,25.424,48.88,22.966,49.774z"/>
	<g display="inline">
		<path fill="#FFFFFF" d="M72.764,73.696c-3.18,0-4.021,2.104-4.021,3.216c0,0.445,0.361,0.805,0.804,0.805
			c3.182,0,4.022-2.104,4.022-3.217C73.568,74.057,73.21,73.696,72.764,73.696z"/>
		<path fill="#FFFFFF" d="M72.764,69.675c-3.18,0-4.021,2.104-4.021,3.217c0,0.445,0.361,0.805,0.804,0.805
			c3.182,0,4.022-2.104,4.022-3.217C73.568,70.035,73.21,69.675,72.764,69.675z"/>
		<path fill="#FFFFFF" d="M72.764,65.652c-3.18,0-4.021,2.104-4.021,3.217c0,0.446,0.361,0.806,0.804,0.806
			c3.182,0,4.022-2.104,4.022-3.219C73.568,66.013,73.21,65.652,72.764,65.652z"/>
		<path fill="#FFFFFF" d="M72.764,81.74c-3.18,0-4.021,2.102-4.021,3.216c0,0.445,0.361,0.805,0.804,0.805
			c3.182,0,4.022-2.104,4.022-3.219C73.568,82.099,73.21,81.74,72.764,81.74z"/>
		<path fill="#FFFFFF" d="M72.764,77.718c-3.18,0-4.021,2.104-4.021,3.218c0,0.443,0.361,0.804,0.804,0.804
			c3.182,0,4.022-2.104,4.022-3.218C73.568,78.077,73.21,77.718,72.764,77.718z"/>
		<path fill="#FFFFFF" d="M67.134,77.718c0.444,0,0.804-0.359,0.804-0.805c0-1.112-0.84-3.217-4.021-3.217
			c-0.444,0-0.803,0.36-0.803,0.805C63.113,75.613,63.953,77.718,67.134,77.718z"/>
		<path fill="#FFFFFF" d="M67.134,73.696c0.444,0,0.804-0.359,0.804-0.805c0-1.113-0.84-3.217-4.021-3.217
			c-0.444,0-0.803,0.36-0.803,0.805C63.113,71.592,63.953,73.696,67.134,73.696z"/>
		<path fill="#FFFFFF" d="M67.134,69.675c0.444,0,0.804-0.358,0.804-0.805c0-1.113-0.84-3.217-4.021-3.217
			c-0.444,0-0.803,0.359-0.803,0.804C63.113,67.57,63.953,69.675,67.134,69.675z"/>
		<path fill="#FFFFFF" d="M72.764,61.632c-3.18,0-4.021,2.104-4.021,3.217c0,0.444,0.361,0.805,0.804,0.805
			c3.182,0,4.022-2.104,4.022-3.218C73.568,61.991,73.21,61.632,72.764,61.632z"/>
		<path fill="#FFFFFF" d="M67.134,65.652c0.444,0,0.804-0.357,0.804-0.804c0-1.113-0.84-3.216-4.021-3.216
			c-0.444,0-0.803,0.358-0.803,0.804C63.113,63.549,63.953,65.652,67.134,65.652z"/>
		<path fill="#FFFFFF" d="M67.939,84.956c0-1.114-0.841-3.217-4.021-3.217c-0.446,0-0.804,0.358-0.804,0.803
			c0,1.114,0.84,3.219,4.021,3.219C67.578,85.762,67.939,85.401,67.939,84.956z"/>
		<path fill="#FFFFFF" d="M67.134,81.74c0.444,0,0.804-0.36,0.804-0.805c0-1.113-0.84-3.217-4.021-3.217
			c-0.444,0-0.803,0.359-0.803,0.804C63.113,79.635,63.953,81.74,67.134,81.74z"/>
		<path fill="#FFFFFF" d="M60.699,70.882c-3.578,0-3.62,2.786-3.62,2.814c0,0.222,0.181,0.401,0.401,0.401
			c3.58,0,3.62-2.786,3.62-2.814C61.101,71.062,60.921,70.882,60.699,70.882z"/>
		<path fill="#FFFFFF" d="M60.699,66.859c-3.578,0-3.62,2.786-3.62,2.815c0,0.222,0.181,0.401,0.401,0.401
			c3.58,0,3.62-2.788,3.62-2.816C61.101,67.039,60.921,66.859,60.699,66.859z"/>
		<path fill="#FFFFFF" d="M60.699,78.926c-3.578,0-3.62,2.787-3.62,2.814c0,0.221,0.181,0.401,0.401,0.401
			c3.58,0,3.62-2.787,3.62-2.815C61.101,79.104,60.921,78.926,60.699,78.926z"/>
		<path fill="#FFFFFF" d="M60.699,74.903c-3.578,0-3.62,2.787-3.62,2.814c0,0.223,0.181,0.4,0.401,0.4c3.58,0,3.62-2.785,3.62-2.813
			C61.101,75.082,60.921,74.903,60.699,74.903z"/>
		<path fill="#FFFFFF" d="M55.873,74.099c0.224,0,0.402-0.179,0.402-0.402c0-0.027-0.041-2.813-3.619-2.813
			c-0.221,0-0.401,0.18-0.401,0.401C52.254,71.312,52.296,74.099,55.873,74.099z"/>
		<path fill="#FFFFFF" d="M55.873,70.077c0.224,0,0.402-0.181,0.402-0.402c0-0.027-0.041-2.814-3.619-2.814
			c-0.221,0-0.401,0.181-0.401,0.401C52.254,67.292,52.296,70.077,55.873,70.077z"/>
		<path fill="#FFFFFF" d="M56.275,81.74c0-0.027-0.041-2.814-3.62-2.814c-0.221,0-0.401,0.179-0.401,0.4
			c0,0.028,0.043,2.815,3.619,2.815C56.097,82.142,56.275,81.961,56.275,81.74z"/>
		<path fill="#FFFFFF" d="M55.873,78.118c0.224,0,0.402-0.178,0.402-0.4c0-0.027-0.041-2.814-3.619-2.814
			c-0.221,0-0.401,0.179-0.401,0.401C52.254,75.333,52.296,78.118,55.873,78.118z"/>
		<path fill="#FFFFFF" d="M84.026,70.882c-3.579,0-3.62,2.786-3.62,2.814c0,0.222,0.179,0.401,0.402,0.401
			c3.577,0,3.619-2.786,3.619-2.814C84.428,71.062,84.246,70.882,84.026,70.882z"/>
		<path fill="#FFFFFF" d="M80.807,70.077c3.579,0,3.62-2.787,3.62-2.815c0-0.221-0.181-0.401-0.402-0.401
			c-3.578,0-3.618,2.787-3.618,2.814C80.406,69.896,80.584,70.077,80.807,70.077z"/>
		<path fill="#FFFFFF" d="M84.026,78.926c-3.579,0-3.62,2.787-3.62,2.814c0,0.221,0.179,0.401,0.402,0.401
			c3.577,0,3.619-2.787,3.619-2.815C84.428,79.104,84.246,78.926,84.026,78.926z"/>
		<path fill="#FFFFFF" d="M84.026,74.903c-3.579,0-3.62,2.787-3.62,2.814c0,0.223,0.179,0.4,0.402,0.4
			c3.577,0,3.619-2.785,3.619-2.813C84.428,75.082,84.246,74.903,84.026,74.903z"/>
		<path fill="#FFFFFF" d="M79.2,74.099c0.222,0,0.4-0.179,0.4-0.402c0-0.027-0.042-2.813-3.618-2.813
			c-0.224,0-0.402,0.18-0.402,0.401C75.58,71.312,75.619,74.099,79.2,74.099z"/>
		<path fill="#FFFFFF" d="M79.2,70.077c0.222,0,0.4-0.181,0.4-0.402c0-0.027-0.042-2.814-3.618-2.814
			c-0.224,0-0.402,0.181-0.402,0.401C75.58,67.292,75.619,70.077,79.2,70.077z"/>
		<path fill="#FFFFFF" d="M79.601,81.74c0-0.027-0.042-2.814-3.618-2.814c-0.224,0-0.402,0.179-0.402,0.4
			c0,0.028,0.041,2.815,3.62,2.815C79.422,82.142,79.601,81.961,79.601,81.74z"/>
		<path fill="#FFFFFF" d="M79.2,78.118c0.222,0,0.4-0.178,0.4-0.4c0-0.027-0.042-2.814-3.618-2.814
			c-0.224,0-0.402,0.179-0.402,0.401C75.58,75.333,75.619,78.118,79.2,78.118z"/>
		<path fill="#FFFFFF" d="M80.004,83.348c-0.445,0-0.804,0.36-0.804,0.805v8.045c0,0.445,0.358,0.804,0.804,0.804
			c0.444,0,0.803-0.358,0.803-0.804v-8.045C80.807,83.708,80.447,83.348,80.004,83.348z"/>
		<path fill="#FFFFFF" d="M56.679,83.348c-0.446,0-0.806,0.36-0.806,0.805v8.045c0,0.445,0.359,0.804,0.806,0.804
			c0.444,0,0.803-0.358,0.803-0.804v-8.045C57.481,83.708,57.123,83.348,56.679,83.348z"/>
		<path fill="#FFFFFF" d="M68.342,86.565c-0.667,0-1.208,0.54-1.208,1.208c0,0.14,0,0.4,0,0.4v3.217c0,0,0,0.259,0,0.402
			c0,0.665,0.541,1.207,1.208,1.207c0.666,0,1.206-0.54,1.206-1.207c0-0.144,0-0.402,0-0.402v-3.217c0,0,0-0.261,0-0.4
			C69.548,87.105,69.007,86.565,68.342,86.565z"/>
		<path fill="#FFFFFF" d="M79.824,67.622c0.056,0.027,0.118,0.042,0.18,0.042c0.061,0,0.123-0.015,0.179-0.042
			c0.031-0.016,0.782-0.4,1.035-1.353c0.244-0.917-0.052-2.012-0.879-3.252c-0.15-0.223-0.521-0.223-0.668,0
			c-0.829,1.241-1.124,2.335-0.88,3.252C79.042,67.222,79.793,67.606,79.824,67.622z"/>
		<path fill="#FFFFFF" d="M56.589,67.622c0.055,0.027,0.117,0.042,0.179,0.042c0.061,0,0.125-0.015,0.181-0.042
			c0.031-0.016,0.78-0.4,1.033-1.353c0.242-0.917-0.051-2.012-0.88-3.252c-0.148-0.223-0.519-0.223-0.668,0
			c-0.826,1.241-1.123,2.335-0.88,3.252C55.806,67.222,56.557,67.606,56.589,67.622z"/>
		<path fill="#FFFFFF" d="M67.971,62.352c0.113,0.057,0.235,0.085,0.358,0.085c0.124,0,0.246-0.028,0.359-0.085
			c0.097-0.049,0.948-0.502,1.244-1.608c0.275-1.034-0.039-2.238-0.934-3.579c-0.299-0.448-1.04-0.448-1.339,0
			c-0.894,1.341-1.207,2.545-0.933,3.579C67.02,61.849,67.871,62.304,67.971,62.352z"/>
	</g>
	<path display="inline" fill="#FFFFFF" d="M80.422,18.607c-1.542,0-2.719,2.517-2.719,3.775c0,1.379,1.084,3.463,2.719,3.463
		c1.636,0,2.72-2.085,2.72-3.463C83.142,21.107,81.909,18.607,80.422,18.607z M82.145,21.463c0.026,0.088,0.643,2.178-0.917,3.277
		c-0.071,0.05-0.151,0.074-0.232,0.074c-0.126,0-0.251-0.06-0.33-0.17c-0.129-0.182-0.083-0.433,0.098-0.56
		c1.082-0.762,0.631-2.32,0.61-2.386c-0.063-0.212,0.056-0.438,0.269-0.5C81.852,21.133,82.078,21.251,82.145,21.463z"/>
	<path display="inline" fill="#FFFFFF" d="M86.933,26.479c-1.319,0-2.325,2.151-2.325,3.229c0,1.18,0.927,2.962,2.325,2.962
		c1.396,0,2.324-1.783,2.324-2.962C89.256,28.618,88.203,26.479,86.933,26.479z M87.655,31.772
		c-0.071,0.051-0.152,0.074-0.233,0.074c-0.125,0-0.25-0.06-0.327-0.171c-0.129-0.182-0.085-0.433,0.096-0.559
		c0.897-0.633,0.505-1.961,0.5-1.975c-0.063-0.212,0.055-0.438,0.267-0.502c0.216-0.064,0.438,0.055,0.504,0.267
		C88.483,28.984,89.021,30.809,87.655,31.772z"/>
	<path display="inline" fill="#FFFFFF" d="M72.682,22.227c-1.318,0-2.324,2.152-2.324,3.229c0,1.18,0.926,2.962,2.324,2.962
		c1.397,0,2.324-1.783,2.324-2.962C75.006,24.364,73.956,22.227,72.682,22.227z M74.21,24.652c0.022,0.078,0.562,1.903-0.805,2.867
		c-0.071,0.05-0.151,0.074-0.233,0.074c-0.125,0-0.251-0.06-0.328-0.171c-0.129-0.181-0.085-0.432,0.096-0.56
		c0.897-0.633,0.504-1.961,0.499-1.974c-0.063-0.214,0.056-0.438,0.268-0.503C73.924,24.322,74.144,24.44,74.21,24.652z"/>
	<g display="inline">
		<path fill="#FFFFFF" d="M48.521,78.586c-6.491-1.744-12.132-5.646-16.076-10.979l3.574-2.434c0.254-0.172,0.388-0.476,0.344-0.779
			c-0.043-0.304-0.256-0.556-0.548-0.65l-8.567-2.778c-0.232-0.076-0.486-0.041-0.691,0.095c-0.205,0.134-0.335,0.354-0.357,0.598
			l-0.816,9.163c-0.026,0.31,0.125,0.607,0.394,0.766c0.126,0.073,0.268,0.11,0.407,0.11c0.159,0,0.317-0.047,0.453-0.14l3.146-2.14
			c4.376,5.966,10.668,10.331,17.905,12.275c0.14,0.038,0.279,0.055,0.417,0.055c0.71,0,1.36-0.473,1.552-1.191
			C49.889,79.699,49.379,78.817,48.521,78.586z"/>
		<path fill="#FFFFFF" d="M64.283,13.135c-0.148-0.273-0.428-0.44-0.75-0.42c-0.311,0.017-0.584,0.211-0.702,0.5l-1.629,3.975
			c-1.647-0.252-3.319-0.38-4.994-0.38c-6.636,0-13.027,1.973-18.479,5.704c-0.508,0.348-1.004,0.708-1.493,1.083
			c-0.706,0.541-0.836,1.55-0.297,2.255c0.317,0.413,0.795,0.629,1.277,0.629c0.343,0,0.687-0.109,0.979-0.333
			c0.439-0.336,0.887-0.662,1.35-0.977c4.917-3.365,10.677-5.144,16.663-5.144c1.251,0,2.497,0.088,3.732,0.245l-1.412,3.446
			c-0.117,0.285-0.061,0.609,0.145,0.838c0.153,0.174,0.373,0.271,0.6,0.271c0.073,0,0.146-0.01,0.216-0.029l8.681-2.411
			c0.235-0.066,0.428-0.235,0.524-0.46c0.096-0.226,0.083-0.483-0.033-0.698L64.283,13.135z"/>
		<path fill="#FFFFFF" d="M92.552,56.895l-4.04-1.301c0.313-1.824,0.472-3.681,0.472-5.559c0-5.087-1.132-9.958-3.365-14.485
			c-0.392-0.795-1.356-1.123-2.154-0.729c-0.798,0.393-1.123,1.358-0.729,2.155c2.011,4.077,3.032,8.471,3.032,13.06
			c0,1.538-0.123,3.06-0.355,4.56l-3.662-1.182c-0.292-0.091-0.614-0.013-0.826,0.209c-0.211,0.221-0.281,0.543-0.178,0.832
			l3.073,8.468c0.085,0.23,0.269,0.41,0.5,0.486c0.085,0.028,0.171,0.043,0.257,0.043c0.151,0,0.304-0.043,0.436-0.128l7.729-4.985
			c0.265-0.17,0.404-0.473,0.362-0.782C93.062,57.249,92.847,56.991,92.552,56.895z"/>
	</g>
</g>
<g id="Layer_13">
	<circle fill="#FEC93A" cx="53.367" cy="49.689" r="54"/>
</g>
<g id="agricultura" display="none">
	<path display="inline" fill="#FFFFFF" d="M30.196,86.098l-1.048-10.554c0-0.971,1.237-0.111,2.798-0.111l0,0
		c1.548,0,2.801-0.859,2.801,0.111l0,0L33.87,85.837C33.87,88.085,30.196,87.169,30.196,86.098z"/>
	<path display="inline" fill="#FFFFFF" d="M25.703,51.74c-7.688-3.476-7.063-8.946-7.063-8.946
		c-0.97,1.932,1.094,18.776,9.106,18.776C31.332,61.57,34.345,55.622,25.703,51.74z"/>
	<path display="inline" fill="#FFFFFF" d="M25.703,39.837c-7.688-3.464-7.063-8.935-7.063-8.935
		c-0.97,1.926,1.094,18.775,9.106,18.775C31.332,49.678,34.345,43.729,25.703,39.837z"/>
	<path display="inline" fill="#FFFFFF" d="M25.703,28.292c-7.688-3.449-7.063-8.931-7.063-8.931
		c-0.97,1.931,1.094,18.767,9.106,18.767C31.332,38.128,34.345,32.195,25.703,28.292z"/>
	<path display="inline" fill="#FFFFFF" d="M36.363,61.57c8.013,0,10.066-16.845,9.106-18.776c0,0,0.621,5.471-7.071,8.946
		C29.766,55.622,32.769,61.57,36.363,61.57z"/>
	<path display="inline" fill="#FFFFFF" d="M25.703,63.928c-7.688-3.474-7.063-8.944-7.063-8.944
		c-0.97,1.931,1.094,18.775,9.106,18.775C31.332,73.759,34.345,67.811,25.703,63.928z"/>
	<path display="inline" fill="#FFFFFF" d="M36.363,73.759c8.013,0,10.066-16.845,9.106-18.775c0,0,0.621,5.471-7.071,8.944
		C29.766,67.811,32.769,73.759,36.363,73.759z"/>
	<path display="inline" fill="#FFFFFF" d="M36.363,49.678c8.013,0,10.066-16.85,9.106-18.775c0,0,0.621,5.471-7.071,8.935
		C29.766,43.729,32.769,49.678,36.363,49.678z"/>
	<path display="inline" fill="#FFFFFF" d="M36.363,38.128c8.013,0,10.066-16.836,9.106-18.767c0,0,0.621,5.481-7.071,8.931
		C29.766,32.195,32.769,38.128,36.363,38.128z"/>
	<path display="inline" fill="#FFFFFF" d="M32.611,29.192c8.501,0-0.467-18.122-0.467-18.122
		C31.063,12.775,24.114,29.192,32.611,29.192z"/>
	<path display="inline" fill="#FFFFFF" d="M55.595,87.512l5.129-8.977l0,0c0.407-0.864-1.086-0.627-2.487-1.271l0,0
		c-1.423-0.66-2.182-1.961-2.587-1.082l-3.497,10.007C51.702,87.169,54.642,89.544,55.595,87.512z"/>
	<path display="inline" fill="#FFFFFF" d="M62.548,53.143c-5.497-6.392-2.634-11.088-2.634-11.088
		c-1.691,1.343-6.912,17.494,0.347,20.868C63.514,64.437,68.754,60.312,62.548,53.143z"/>
	<path display="inline" fill="#FFFFFF" d="M67.566,42.342c-5.5-6.377-2.64-11.073-2.64-11.073
		c-1.694,1.338-6.921,17.484,0.342,20.869C68.532,53.646,73.762,49.532,67.566,42.342z"/>
	<path display="inline" fill="#FFFFFF" d="M72.43,31.883c-5.517-6.366-2.641-11.082-2.641-11.082
		c-1.689,1.342-6.913,17.482,0.353,20.867C73.396,43.171,78.629,39.063,72.43,31.883z"/>
	<path display="inline" fill="#FFFFFF" d="M68.08,66.562c7.265,3.364,16.232-11.031,16.161-13.199c0,0-1.735,5.226-10.179,5.129
		C64.6,58.393,64.821,65.04,68.08,66.562z"/>
	<path display="inline" fill="#FFFFFF" d="M57.42,64.195c-5.509-6.387-2.646-11.078-2.646-11.078
		c-1.69,1.338-6.911,17.484,0.353,20.848C58.39,75.479,63.615,71.365,57.42,64.195z"/>
	<path display="inline" fill="#FFFFFF" d="M62.945,77.606c7.26,3.379,16.227-11.032,16.167-13.189c0,0-1.74,5.224-10.178,5.129
		C59.467,69.444,59.692,76.098,62.945,77.606z"/>
	<path display="inline" fill="#FFFFFF" d="M73.099,55.768c7.26,3.374,16.221-11.042,16.16-13.194c0,0-1.739,5.22-10.177,5.129
		C69.608,47.602,69.84,54.264,73.099,55.768z"/>
	<path display="inline" fill="#FFFFFF" d="M77.961,45.288c7.266,3.384,16.216-11.021,16.155-13.184c0,0-1.744,5.239-10.172,5.128
		C74.477,37.133,74.707,43.785,77.961,45.288z"/>
	<path display="inline" fill="#FFFFFF" d="M78.317,35.604c7.704,3.58,7.211-16.636,7.211-16.636
		C83.829,20.076,70.614,32.022,78.317,35.604z"/>
</g>
<g id="industry" display="none">
	<polygon display="inline" fill="#FFFFFF" points="77.091,64.178 77.091,68.538 18.635,49.644 18.635,53.966 47.461,63.256 
		47.461,67.59 18.671,58.303 18.671,83 86.1,83 86.1,31.489 77.091,31.489 77.091,59.88 47.461,50.313 47.461,54.684 	"/>
	<path display="inline" fill="#FFFFFF" d="M79.784,29.547h3.852c0.083-3.654-2.818-9.726-7.188-12.069
		c0.086-1.663-0.11-3.728-0.875-5.514c-1.104-2.67-4.006-4.406-6.909-4.77c-3.885-0.474-6.107,1.151-8.099,3.254
		c-1.979,2.112-5.514,1.711-7.382,0.56c-1.872-1.19-5.721-2.624-9.169,0.278c-3.459,2.854-4.651,0.679-8.099-0.085
		c-3.426-0.751-8.148,1.312-8.186,6.436c0.194,5.44,5.683,7.54,8.657,6.242c2.976-1.312,4.166-3.22,7.857-0.207
		c3.498,2.864,8.1,1.188,9.897-0.998c1.736-2.222,5.112-2.136,7.177-0.108c2.027,2.064,3.581,2.537,6.437,2.575
		c2.342,0.035,4.285-1.105,5.803-2.223C76.726,22.917,79.154,25.978,79.784,29.547"/>
</g>
<g id="trade" display="none">
	<circle display="inline" fill="#FFFFFF" cx="83.195" cy="72.543" r="6.124"/>
	<g display="inline">
		<rect x="40.326" y="58.253" fill="#FFFFFF" width="48.993" height="4.082"/>
	</g>
	<circle display="inline" fill="#FFFFFF" cx="46.45" cy="72.543" r="6.124"/>
	<rect x="15.83" y="21.508" display="inline" fill="#FFFFFF" width="12.249" height="4.083"/>
	<polygon display="inline" fill="#FFFFFF" points="44.409,62.335 40.326,62.335 23.996,21.508 28.078,21.508 	"/>
	<polygon display="inline" fill="#FFFFFF" points="40.326,41.922 89.319,41.922 89.319,54.17 45.226,54.17 	"/>
	<polygon display="inline" fill="#FFFFFF" points="33.794,25.591 89.319,25.591 89.319,37.839 38.693,37.839 	"/>
</g>
<g id="Layer_17">
	<circle fill="#FFFFFF" cx="67.896" cy="94.147" r="3.927"/>
	<circle fill="#FFFFFF" cx="39.365" cy="94.147" r="3.929"/>
	<polygon fill="#FFFFFF" points="40.557,8.938 40.557,28.639 43.707,28.639 43.707,12.526 63.449,12.488 63.449,28.639 
		66.602,28.639 66.602,8.938 	"/>
	<path fill="#FFFFFF" d="M67.609,20.79H39.127c-6.482,0-11.784,5.304-11.784,11.783v44.878c0,4.752,2.856,8.861,6.932,10.722
		c1.375-1.171,3.149-1.883,5.09-1.883c2.475,0,4.683,1.151,6.124,2.946h16.285c1.442-1.795,3.649-2.946,6.122-2.946
		c1.853,0,3.552,0.646,4.896,1.722c3.899-1.929,6.601-5.938,6.601-10.561V32.573C79.392,26.094,74.091,20.79,67.609,20.79z
		 M38.478,37.638c0-1.786,0-6.924,0-6.924h10.104c0,0,0,4.823,0,6.922c0,3.446-5.053,5.013-5.053,5.013S38.478,41.083,38.478,37.638
		z M48.864,76.651c-3.101,0-5.613-2.515-5.613-5.613c0-3.102,2.512-5.61,5.61-5.614c3.1,0.004,5.611,2.516,5.613,5.614
		C54.475,74.137,51.965,76.651,48.864,76.651z M66.748,50.401l-9.342-3.027l3.786-11.674l9.34,3.028L66.748,50.401z"/>
</g>
<g id="Layer_4" display="none">
	
		<image display="inline" overflow="visible" width="528" height="450" xlink:href="../../../../Desktop/Screen Shot 2014-04-29 at 16.53.52.png"  transform="matrix(1 0 0 1 -539.5 -211.5)">
	</image>
</g>
</svg>
